HIERARCHY
ROOT SpineBase
{
  OFFSET 0.000000 0.000000 0.000000
  CHANNELS 6 Xposition Yposition Zposition Zrotation Xrotation Yrotation
  JOINT SpineMid
  {
    OFFSET 0.000000 26.249118 0.000000
    CHANNELS 3 Zrotation Xrotation Yrotation
    JOINT SpineShoulder
    {
      OFFSET 0.010300 19.632794 -0.712933
      CHANNELS 3 Zrotation Xrotation Yrotation
      JOINT Neck
      {
        OFFSET -0.008124 6.530360 -0.508473
        CHANNELS 3 Zrotation Xrotation Yrotation
        JOINT Head
        {
          OFFSET -2.322088 10.646416 2.017725
          CHANNELS 3 Zrotation Xrotation Yrotation
          End Site
          {
            OFFSET 0 0 0
          }
        }
      }
      JOINT ShoulderLeft
      {
        OFFSET -13.246876 -3.698472 3.449577
        CHANNELS 3 Zrotation Xrotation Yrotation
        JOINT ElbowLeft
        {
          OFFSET -1.007982 -21.754622 3.200906
          CHANNELS 3 Zrotation Xrotation Yrotation
          JOINT WristLeft
          {
            OFFSET -1.902860 -21.195137 -3.339607
            CHANNELS 3 Zrotation Xrotation Yrotation
            JOINT HandLeft
            {
              OFFSET 0.106904 -6.832856 -1.730804
              CHANNELS 3 Zrotation Xrotation Yrotation
              JOINT HandTipLeft
              {
                OFFSET -0.037322 -6.127015 -0.806738
                CHANNELS 3 Zrotation Xrotation Yrotation
                End Site
                {
                  OFFSET 0 0 0
                }
              }
              JOINT ThumbLeft
              {
                OFFSET 2.038242 -0.744177 -2.866821
                CHANNELS 3 Zrotation Xrotation Yrotation
                End Site
                {
                  OFFSET 0 0 0
                }
              }
            }
          }
        }
      }
      JOINT ShoulderRight
      {
        OFFSET 11.607442 -2.033047 -5.570723
        CHANNELS 3 Zrotation Xrotation Yrotation
        JOINT ElbowRight
        {
          OFFSET 5.686068 -21.516751 -0.867037
          CHANNELS 3 Zrotation Xrotation Yrotation
          JOINT WristRight
          {
            OFFSET -0.703746 -20.111404 -6.474671
            CHANNELS 3 Zrotation Xrotation Yrotation
            JOINT HandRight
            {
              OFFSET -1.321411 -6.317224 -0.679076
              CHANNELS 3 Zrotation Xrotation Yrotation
              JOINT HandTipRight
              {
                OFFSET 0.195437 -6.273470 -1.816589
                CHANNELS 3 Zrotation Xrotation Yrotation
                End Site
                {
                  OFFSET 0 0 0
                }
              }
              JOINT ThumbRight
              {
                OFFSET 1.913228 -0.509112 -2.429784
                CHANNELS 3 Zrotation Xrotation Yrotation
                End Site
                {
                  OFFSET 0 0 0
                }
              }
            }
          }
        }
      }
    }
  }
  JOINT HipLeft
  {
    OFFSET -5.828769 0.395662 -1.344332
    CHANNELS 3 Zrotation Xrotation Yrotation
    JOINT KneeLeft
    {
      OFFSET 3.979938 -33.719776 2.100439
      CHANNELS 3 Zrotation Xrotation Yrotation
      JOINT AnkleLeft
      {
        OFFSET 7.230188 -34.526568 3.543051
        CHANNELS 3 Zrotation Xrotation Yrotation
        JOINT FootLeft
        {
          OFFSET -3.031884 -2.762780 -11.281749
          CHANNELS 3 Zrotation Xrotation Yrotation
          End Site
          {
            OFFSET 0 0 0
          }
        }
      }
    }
  }
  JOINT HipRight
  {
    OFFSET 5.465976 1.199243 -4.553894
    CHANNELS 3 Zrotation Xrotation Yrotation
    JOINT KneeRight
    {
      OFFSET 6.177326 -31.433940 -1.571273
      CHANNELS 3 Zrotation Xrotation Yrotation
      JOINT AnkleRight
      {
        OFFSET 2.810987 -35.499115 5.984678
        CHANNELS 3 Zrotation Xrotation Yrotation
        JOINT FootRight
        {
          OFFSET -3.053442 -2.282415 -12.712611
          CHANNELS 3 Zrotation Xrotation Yrotation
          End Site
          {
            OFFSET 0 0 0
          }
        }
      }
    }
  }
}
MOTION
Frames: 14
Frame Time: 0.033333
23.303570 74.638849 369.446754 0.282163 2.561106 17.627870 0.200528 0.581857 -17.627256 -0.090400 0.085050 0.008389 -0.882732 -7.174196 -0.820342 0.000000 0.000000 0.000000 -3.316659 -3.716917 -0.649694 3.098733 0.485273 0.421227 -0.509103 -4.195261 0.045067 -5.403070 5.745472 1.195658 0.000000 0.000000 0.000000 0.000000 0.000000 0.000000 106.033243 42.613453 -34.723324 143.756507 28.919318 21.685231 18.803325 -19.924297 -47.354294 -34.524357 9.685494 70.581728 0.000000 0.000000 0.000000 0.000000 0.000000 0.000000 -2.573245 -0.990179 -17.718038 0.942655 -1.286296 -0.175434 3.265433 -4.832524 -4.354914 0.000000 0.000000 0.000000 -2.901164 -2.611304 -17.810625 3.456375 3.005294 0.476773 -0.696288 -9.003091 3.817618 0.000000 0.000000 0.000000
23.291312 74.646913 369.463294 0.251868 2.672050 17.606046 0.153927 0.577346 -17.608244 -0.094319 0.077839 0.005071 -0.781619 -7.445272 -0.857706 0.000000 0.000000 0.000000 -3.041448 -3.859155 -0.603760 2.900832 0.538058 0.389080 -0.975893 -2.729819 0.182360 -4.407578 5.502199 0.848225 0.000000 0.000000 0.000000 0.000000 0.000000 0.000000 106.008192 42.516588 -34.492895 143.691701 29.052887 22.210382 18.499675 -19.108851 -46.780955 -35.570515 12.927905 76.695709 0.000000 0.000000 0.000000 0.000000 0.000000 0.000000 -2.603402 -1.054756 -17.697776 0.955875 -1.314186 -0.177888 4.000918 -7.008313 -5.462704 0.000000 0.000000 0.000000 -2.935584 -2.683877 -17.785489 3.560297 2.927858 0.474958 -1.159337 -6.837724 2.465219 0.000000 0.000000 0.000000
23.283175 74.647441 369.534952 0.193575 2.701725 17.512525 0.136504 0.567276 -17.515874 -0.089302 0.085497 0.002717 -0.710958 -7.459266 -0.849295 0.000000 0.000000 0.000000 -2.732577 -3.984658 -0.544557 2.658128 0.636364 0.347585 -1.810042 -2.316233 0.387775 -2.957354 5.385376 0.470297 0.000000 0.000000 0.000000 0.000000 0.000000 0.000000 105.983381 42.483951 -34.386085 143.592776 29.073247 22.519459 17.499904 -21.290577 -49.153182 -37.225841 16.582204 82.101610 0.000000 0.000000 0.000000 0.000000 0.000000 0.000000 -2.555103 -1.081325 -17.601138 1.000197 -1.307967 -0.169235 4.187252 -7.797405 -5.767977 0.000000 0.000000 0.000000 -2.909363 -2.690008 -17.683222 3.656206 2.874121 0.474440 -0.770756 -8.605519 2.666427 0.000000 0.000000 0.000000
23.285862 74.636981 369.638000 0.129804 2.663213 17.495370 0.140891 0.547469 -17.498483 -0.083678 0.087129 0.001071 -0.656788 -7.246255 -0.807922 0.000000 0.000000 0.000000 -2.557860 -3.978670 -0.509103 3.774171 0.311525 0.153976 -4.176842 -1.433687 0.858651 -1.463976 6.673380 0.116606 0.000000 0.000000 0.000000 0.000000 0.000000 0.000000 105.990662 42.504974 -34.431562 143.458057 29.000065 22.628186 17.370567 -21.421518 -49.466586 -37.379882 19.424745 84.561648 0.000000 0.000000 0.000000 0.000000 0.000000 0.000000 -2.421474 -1.054332 -17.571440 1.020837 -1.280602 -0.155047 3.822639 -7.134337 -5.071798 0.000000 0.000000 0.000000 -2.866825 -2.635992 -17.655712 3.789311 2.811265 0.478618 0.596920 -14.706671 5.833646 0.000000 0.000000 0.000000
23.293926 74.621845 369.764250 0.072094 2.600714 17.489945 0.158451 0.517276 -17.491925 -0.076751 0.088240 0.000408 -0.674400 -6.962712 -0.754829 0.000000 0.000000 0.000000 -2.492212 -3.875107 -0.494628 4.018143 0.318844 0.100143 -5.421480 -1.495988 1.139057 -0.809526 7.975724 -0.028348 0.000000 0.000000 0.000000 0.000000 0.000000 0.000000 106.034483 42.601734 -34.605984 143.343722 28.845939 22.412224 17.823527 -21.336501 -49.331618 -39.382458 22.786690 90.057156 0.000000 0.000000 0.000000 0.000000 0.000000 0.000000 -2.275950 -1.003353 -17.551660 1.796777 -0.958500 0.013796 2.167163 -5.400800 -3.580054 0.000000 0.000000 0.000000 -2.811437 -2.549684 -17.636805 3.900308 2.746817 0.480748 5.966651 -29.246294 14.665604 0.000000 0.000000 0.000000
23.311033 74.601275 369.892053 0.007399 2.531827 17.478503 0.180293 0.512274 -17.479796 -0.073443 0.101476 -0.001025 -0.556336 -6.826735 -0.739248 0.000000 0.000000 0.000000 -2.380593 -3.699350 -0.476254 4.217685 0.428889 0.032471 -6.205691 -2.168438 1.285630 -0.056896 9.091259 -0.168218 0.000000 0.000000 0.000000 0.000000 0.000000 0.000000 106.037068 42.742264 -34.751204 143.241136 28.725667 22.225831 18.757400 -20.137979 -48.039549 -36.936423 21.411344 85.169129 0.000000 0.000000 0.000000 0.000000 0.000000 0.000000 -2.083538 -0.962025 -17.522305 1.690601 -0.987736 0.003298 0.871866 -2.235376 -1.195026 0.000000 0.000000 0.000000 -2.741549 -2.466432 -17.612640 3.983506 2.691516 0.481573 14.265889 -41.397464 25.971339 0.000000 0.000000 0.000000
23.333951 74.578879 370.006309 -0.034682 2.471696 17.506138 0.231784 0.523377 -17.505447 -0.050910 0.120064 0.001443 -0.599719 -6.792476 -0.735856 0.000000 0.000000 0.000000 -2.520284 -3.626756 -0.503165 4.444734 0.737823 -0.003453 -7.128582 -3.273339 1.446632 1.668566 8.149935 -0.614969 0.000000 0.000000 0.000000 0.000000 0.000000 0.000000 106.035720 42.937836 -34.942589 143.063871 28.741471 22.197362 20.240048 -17.871288 -45.632677 -32.405508 19.421187 76.482643 0.000000 0.000000 0.000000 0.000000 0.000000 0.000000 -1.915057 -0.898606 -17.530913 1.590202 -1.038449 -0.009078 1.439119 -3.497596 -2.313573 0.000000 0.000000 0.000000 -2.719346 -2.388422 -17.631099 4.089679 2.657902 0.484287 27.074711 -51.035133 41.494808 0.000000 0.000000 0.000000
23.355543 74.567547 370.101713 -0.036641 2.426829 17.590809 0.304679 0.536822 -17.586812 -0.008465 0.134451 0.008376 -0.937060 -6.915381 -0.750823 0.000000 0.000000 0.000000 -2.888482 -3.487509 -0.571727 4.756929 1.174333 -0.021264 -7.534564 -4.710321 1.467823 2.172717 9.896891 -0.697870 0.000000 0.000000 0.000000 0.000000 0.000000 0.000000 105.949757 43.186514 -35.158908 142.933229 28.860398 22.201075 21.680770 -16.268373 -43.837264 -31.136660 15.781805 71.305500 0.000000 0.000000 0.000000 0.000000 0.000000 0.000000 -1.801332 -0.821598 -17.598487 1.504730 -1.099458 -0.021551 0.826814 -1.945228 -1.330075 0.000000 0.000000 0.000000 -2.768734 -2.327871 -17.713724 4.203199 2.680821 0.489661 40.474700 -55.831645 57.134965 0.000000 0.000000 0.000000
23.371228 74.568926 370.176338 -0.034140 2.419876 17.671512 0.369702 0.563580 -17.664851 0.027491 0.148754 0.014416 -1.240904 -7.134464 -0.778974 0.000000 0.000000 0.000000 -3.394865 -3.362411 -0.672620 4.987401 1.371814 0.049157 -6.990365 -6.587417 1.270436 1.041548 10.947615 -0.352532 0.000000 0.000000 0.000000 0.000000 0.000000 0.000000 105.871995 43.466231 -35.348489 142.851789 29.035112 22.175040 22.271643 -15.919808 -43.426237 -29.072278 12.401091 64.309643 0.000000 0.000000 0.000000 0.000000 0.000000 0.000000 -1.720098 -0.761089 -17.663696 1.441093 -1.173088 -0.033867 -0.000000 0.000000 0.000000 0.000000 0.000000 0.000000 -2.808924 -2.294006 -17.791082 4.288750 2.721581 0.495070 46.580717 -57.048148 64.153426 0.000000 0.000000 0.000000
23.386535 74.570447 370.231144 -0.026798 2.446118 17.701120 0.419468 0.576203 -17.692158 0.058012 0.148475 0.019744 -1.556888 -7.431513 -0.823127 0.000000 0.000000 0.000000 -3.806355 -3.336003 -0.753227 5.103533 1.718988 0.097618 -6.419230 -8.443673 1.086863 0.508417 11.501840 -0.157025 0.000000 0.000000 0.000000 0.000000 0.000000 0.000000 105.795764 43.662858 -35.464106 142.848362 29.186988 22.129590 21.699838 -16.197575 -43.952658 -27.002780 8.248074 56.657032 0.000000 0.000000 0.000000 0.000000 0.000000 0.000000 -1.721415 -0.723069 -17.686432 1.445770 -1.234583 -0.039996 -1.048472 2.454786 1.466571 0.000000 0.000000 0.000000 -2.841841 -2.317173 -17.823417 4.175838 2.818386 0.482841 42.055115 -56.448194 58.433773 0.000000 0.000000 0.000000
23.396606 74.579255 370.244763 -0.019078 2.499010 17.792296 0.433547 0.578763 -17.782590 0.071444 0.131091 0.022087 -1.647209 -7.617046 -0.855903 0.000000 0.000000 0.000000 -3.935174 -3.614351 -0.775380 5.022012 2.354466 0.076285 -5.468635 -9.462409 0.902563 -0.371967 12.343642 0.154036 0.000000 0.000000 0.000000 0.000000 0.000000 0.000000 105.749919 43.762099 -35.496917 142.901659 29.500186 22.471403 23.302622 -14.225098 -41.641267 -26.495330 6.208187 53.224318 0.000000 0.000000 0.000000 0.000000 0.000000 0.000000 -1.701328 -0.706504 -17.767551 1.421801 -1.307354 -0.049413 -0.000000 0.000000 0.000000 0.000000 0.000000 0.000000 -2.860973 -2.328795 -17.909795 4.013368 2.821588 0.457468 40.928297 -55.897847 57.474710 0.000000 0.000000 0.000000
23.412722 74.584870 370.257606 -0.013197 2.551771 17.760546 0.434632 0.579145 -17.750634 0.074910 0.113841 0.022895 -1.600852 -7.701083 -0.874546 0.000000 0.000000 0.000000 -3.944133 -3.861908 -0.775199 5.005576 2.435943 0.069656 -5.077994 -8.771647 0.866263 -0.942548 11.102278 0.268667 0.000000 0.000000 0.000000 0.000000 0.000000 0.000000 105.706848 43.745250 -35.428154 142.959711 29.795494 22.960477 22.106517 -15.854650 -43.356913 -27.806298 6.268502 55.576735 0.000000 0.000000 0.000000 0.000000 0.000000 0.000000 -1.655480 -0.708834 -17.724462 1.371906 -1.372889 -0.060020 -0.000000 0.000000 0.000000 0.000000 0.000000 0.000000 -2.871733 -2.283188 -17.859037 3.876666 2.781924 0.424225 40.182806 -54.977665 57.893873 0.000000 0.000000 0.000000
23.431977 74.582253 370.286848 -0.047027 2.549291 17.779339 0.396208 0.556768 -17.771188 0.055544 0.083248 0.018197 -1.309897 -7.419311 -0.832937 0.000000 0.000000 0.000000 -3.763505 -3.986991 -0.738602 5.123674 2.323296 0.027719 -5.549089 -7.567667 0.980710 -0.992498 11.250351 0.255930 0.000000 0.000000 0.000000 0.000000 0.000000 0.000000 105.902788 43.745861 -35.557690 142.992273 29.908587 23.048294 22.060230 -16.451458 -43.814286 -30.280606 8.462170 62.087110 0.000000 0.000000 0.000000 0.000000 0.000000 0.000000 -1.522022 -0.672963 -17.725214 1.288821 -1.445179 -0.073886 -0.000000 0.000000 0.000000 0.000000 0.000000 0.000000 -2.811512 -2.190814 -17.853190 3.689026 2.756441 0.386729 49.259029 -55.844597 69.524457 0.000000 0.000000 0.000000
23.450660 74.573629 370.305955 -0.088428 2.525951 17.857213 0.333604 0.515142 -17.851833 0.029195 0.045350 0.011591 -0.969008 -7.000136 -0.770893 0.000000 0.000000 0.000000 -3.448180 -4.278123 -0.669908 5.264362 2.648069 -0.099152 -6.668099 -6.112713 1.243719 -0.364183 10.925180 0.018474 0.000000 0.000000 0.000000 0.000000 0.000000 0.000000 106.154107 43.716331 -35.728536 143.071359 29.866876 22.851612 22.744214 -16.223957 -43.295878 -33.160043 9.552827 67.788483 0.000000 0.000000 0.000000 0.000000 0.000000 0.000000 -1.342555 -0.595269 -17.778007 0.418961 -1.069975 -0.088686 0.762630 -0.478424 -0.018708 0.000000 0.000000 0.000000 -2.721828 -2.062896 -17.900952 3.522059 2.680698 0.349042 45.482317 -54.703426 66.247579 0.000000 0.000000 0.000000
